<?xml version="1.0" ?><!-- Uploaded to: SVG Repo, www.svgrepo.com, Generator: SVG Repo Mixer Tools -->
<svg width="800px" height="800px" viewBox="0 0 24 24" fill="none" xmlns="http://www.w3.org/2000/svg"><path d="M10.75 11.75L13 10.25L12.625 11.75H13.75L11.5 13.25L11.875 11.75H10.75Z" fill="#00FFB0"/><path d="M10.5 11.5L12.75 10L12.375 11.5H13.5L11.25 13L11.625 11.5H10.5Z" stroke="#1A6A83" stroke-linecap="round" stroke-linejoin="round" stroke-width="0.2"/><path d="M10.5 4V5M12 4V5M13.5 4V5" stroke="#207284" stroke-linecap="round" stroke-linejoin="round" stroke-width="0.5"/><path d="M14.0085 14.7162C13.8705 14.7116 13.7548 14.8196 13.7501 14.9576C13.7455 15.0956 13.8535 15.2113 13.9915 15.216L14.0085 14.7162ZM9 8.25C9.13807 8.25 9.25 8.13807 9.25 8C9.25 7.86193 9.13807 7.75 9 7.75V8.25ZM11.25 15.8862C11.25 15.7482 11.1381 15.6362 11 15.6362C10.8619 15.6362 10.75 15.7482 10.75 15.8862H11.25ZM12 14.9661L12.0085 14.7161H12V14.9661ZM14 6.75C13.8619 6.75 13.75 6.86193 13.75 7C13.75 7.13807 13.8619 7.25 14 7.25V6.75ZM12.25 20C12.25 19.8619 12.1381 19.75 12 19.75C11.8619 19.75 11.75 19.8619 11.75 20H12.25ZM11.75 21C11.75 21.1381 11.8619 21.25 12 21.25C12.1381 21.25 12.25 21.1381 12.25 21H11.75ZM13.9808 2.75H10V3.25H13.9808V2.75ZM8.75 4V6H9.25V4H8.75ZM10 2.75C9.66646 2.75 9.35583 2.90949 9.13266 3.13266C8.90949 3.35583 8.75 3.66646 8.75 4H9.25C9.25 3.82536 9.33642 3.636 9.48621 3.48621C9.636 3.33642 9.82536 3.25 10 3.25V2.75ZM15.25 4C15.25 3.6633 15.0829 3.35216 14.8555 3.13043C14.628 2.90865 14.3134 2.75 13.9808 2.75V3.25C14.1564 3.25 14.3514 3.33727 14.5065 3.48844C14.6616 3.63967 14.75 3.82853 14.75 4H15.25ZM15.75 9V12.5H16.25V9H15.75ZM8.25 12.5V9H7.75V12.5H8.25ZM10.3003 14.7161C9.71393 14.7161 9.20529 14.4993 8.84274 14.1223C8.48013 13.7452 8.25 13.1932 8.25 12.5H7.75C7.75 13.3068 8.01987 13.9879 8.48234 14.4688C8.94487 14.9498 9.58639 15.2161 10.3003 15.2161V14.7161ZM15.75 12.5C15.75 13.903 14.8264 14.744 14.0085 14.7162L13.9915 15.216C15.1736 15.256 16.25 14.097 16.25 12.5H15.75ZM16.25 9C16.25 8.77159 16.2581 8.43653 16.083 8.17382C15.8893 7.88322 15.533 7.75 15 7.75V8.25C15.467 8.25 15.6107 8.36678 15.667 8.45118C15.7419 8.56347 15.75 8.72841 15.75 9H16.25ZM8.25 9C8.25 8.72841 8.25815 8.56347 8.33301 8.45118C8.38928 8.36678 8.53302 8.25 9 8.25V7.75C8.46698 7.75 8.11072 7.88322 7.91699 8.17382C7.74185 8.43653 7.75 8.77159 7.75 9H8.25ZM12.75 16V18H13.25V16H12.75ZM11.25 18V15.8862H10.75V18H11.25ZM12 18.75C11.7846 18.75 11.5991 18.6982 11.4716 18.593C11.3528 18.4949 11.25 18.3222 11.25 18H10.75C10.75 18.4401 10.8972 18.7673 11.1534 18.9787C11.4009 19.1829 11.7154 19.25 12 19.25V18.75ZM12.75 18C12.75 18.3222 12.6472 18.4949 12.5284 18.593C12.4009 18.6982 12.2154 18.75 12 18.75V19.25C12.2846 19.25 12.5991 19.1829 12.8466 18.9787C13.1028 18.7673 13.25 18.4401 13.25 18H12.75ZM12 14.7161H10.3003V15.2161H12V14.7161ZM13.25 16C13.25 15.7476 13.2504 15.5395 13.2329 15.3798C13.2156 15.2221 13.1765 15.056 13.0518 14.9313C12.9279 14.8074 12.7628 14.7679 12.6094 14.7485C12.4541 14.7289 12.2503 14.7244 12.0085 14.7162L11.9915 15.216C12.2497 15.2247 12.4209 15.2287 12.5468 15.2446C12.6747 15.2607 12.6971 15.2837 12.6982 15.2848C12.6985 15.2851 12.7219 15.3065 12.7359 15.4342C12.7496 15.5601 12.75 15.7354 12.75 16H13.25ZM11 8.25H15V7.75H11V8.25ZM15.25 6V4H14.75V6H15.25ZM14 7.25C14.6904 7.25 15.25 6.69036 15.25 6H14.75C14.75 6.41421 14.4142 6.75 14 6.75V7.25ZM8.75 6C8.75 7.24264 9.75736 8.25 11 8.25V7.75C10.0335 7.75 9.25 6.9665 9.25 6H8.75ZM11.75 20V21H12.25V20H11.75Z" fill="#1A6A83"/></svg>